<?xml version="1.0" encoding="UTF-8" standalone="no"?>
<!-- Created with Inkscape (http://www.inkscape.org/) -->

<svg
   xmlns:dc="http://purl.org/dc/elements/1.1/"
   xmlns:cc="http://creativecommons.org/ns#"
   xmlns:rdf="http://www.w3.org/1999/02/22-rdf-syntax-ns#"
   xmlns:svg="http://www.w3.org/2000/svg"
   xmlns="http://www.w3.org/2000/svg"
   xmlns:sodipodi="http://sodipodi.sourceforge.net/DTD/sodipodi-0.dtd"
   xmlns:inkscape="http://www.inkscape.org/namespaces/inkscape"
   width="320"
   height="180"
   id="svg2"
   version="1.1"
   inkscape:version="0.48.5 r"
   sodipodi:docname="terracaelumque.svg"
   inkscape:export-filename="/home/p2kmgcl/VirtualBox VMs/pablomolina_me_shared/terracaelumque.png"
   inkscape:export-xdpi="90"
   inkscape:export-ydpi="90">
  <defs
     id="defs4">
    <mask
       maskUnits="userSpaceOnUse"
       id="mask3785">
      <rect
         style="fill:#ffffff;fill-opacity:1;stroke:none"
         id="rect3787"
         width="320"
         height="180"
         x="0"
         y="872.36218" />
    </mask>
    <mask
       maskUnits="userSpaceOnUse"
       id="mask3789">
      <rect
         style="fill:#ffffff;fill-opacity:1;stroke:none"
         id="rect3791"
         width="320"
         height="180"
         x="0"
         y="872.36218" />
    </mask>
  </defs>
  <sodipodi:namedview
     id="base"
     pagecolor="#ffffff"
     bordercolor="#666666"
     borderopacity="1.0"
     inkscape:pageopacity="0.0"
     inkscape:pageshadow="2"
     inkscape:zoom="2.3573862"
     inkscape:cx="151.61619"
     inkscape:cy="27.924969"
     inkscape:document-units="px"
     inkscape:current-layer="layer1"
     showgrid="true"
     showguides="true"
     inkscape:guide-bbox="true"
     inkscape:snap-nodes="true"
     inkscape:snap-bbox="true"
     inkscape:snap-bbox-midpoints="false"
     inkscape:snap-grids="true"
     inkscape:bbox-paths="false"
     inkscape:bbox-nodes="false"
     inkscape:snap-page="true"
     inkscape:snap-bbox-edge-midpoints="false"
     inkscape:window-width="1319"
     inkscape:window-height="1024"
     inkscape:window-x="0"
     inkscape:window-y="30"
     inkscape:window-maximized="0"
     inkscape:showpageshadow="false">
    <inkscape:grid
       type="xygrid"
       id="grid2996"
       empspacing="5"
       visible="false"
       enabled="true"
       snapvisiblegridlinesonly="true"
       spacingx="2px"
       spacingy="2px" />
    <sodipodi:guide
       orientation="0,1"
       position="-70,50"
       id="guide9686" />
    <sodipodi:guide
       orientation="1,0"
       position="10,220"
       id="guide9688" />
    <sodipodi:guide
       orientation="0,1"
       position="-120,10"
       id="guide9690" />
  </sodipodi:namedview>
  <metadata
     id="metadata7">
    <rdf:RDF>
      <cc:Work
         rdf:about="">
        <dc:format>image/svg+xml</dc:format>
        <dc:type
           rdf:resource="http://purl.org/dc/dcmitype/StillImage" />
        <dc:title />
      </cc:Work>
    </rdf:RDF>
  </metadata>
  <g
     inkscape:groupmode="layer"
     id="layer2"
     inkscape:label="Capa"
     style="opacity:0.1" />
  <g
     inkscape:label="Capa 1"
     inkscape:groupmode="layer"
     id="layer1"
     transform="translate(0,-872.36218)">
    <rect
       style="opacity:1;fill:#033649;fill-opacity:1;stroke:none"
       id="rect3013"
       width="320"
       height="180"
       x="0"
       y="0"
       transform="translate(0,872.36218)" />
    <path
       inkscape:connector-curvature="0"
       id="path2996"
       style="font-size:400px;font-style:normal;font-weight:normal;line-height:125%;letter-spacing:0px;word-spacing:0px;fill:#9e9a41;fill-opacity:1;stroke:none;font-family:Sans;opacity:0.2"
       d="m -49.171875,849.46028 246.679685,0 0,33.20313 -103.515623,0 0,258.39839 -39.648437,0 0,-258.39839 -103.515625,0 0,-33.20313"
       mask="url(#mask3789)" />
    <path
       inkscape:connector-curvature="0"
       id="path2998"
       style="font-size:400px;font-style:normal;font-weight:normal;line-height:125%;letter-spacing:0px;word-spacing:0px;fill:#f0ddd2;fill-opacity:1;stroke:none;font-family:Sans;opacity:0.2"
       d="m 410.71094,871.92122 0,41.60156 c -13.2815,-12.36955 -27.47419,-21.61433 -42.57813,-27.73437 -14.97416,-6.11953 -30.92466,-9.17943 -47.85156,-9.17969 -33.33347,2.6e-4 -58.85428,10.22161 -76.5625,30.66406 -17.70841,20.31271 -26.56256,49.73977 -26.5625,88.28125 -6e-5,38.41157 8.85409,67.83867 26.5625,88.28127 17.70822,20.3125 43.22903,30.4688 76.5625,30.4687 16.9269,10e-5 32.8774,-3.0598 47.85156,-9.1797 15.10394,-6.1197 29.29663,-15.3645 42.57813,-27.7343 l 0,41.2109 c -13.80233,9.375 -28.45075,16.4063 -43.94532,21.0938 -15.36478,4.6875 -31.6408,7.0312 -48.82812,7.0312 -44.14075,0 -78.90634,-13.4765 -104.29688,-40.4297 -25.39066,-27.0833 -38.08595,-63.9973 -38.08593,-110.74217 -2e-5,-46.87481 12.69527,-83.78883 38.08593,-110.74219 25.39054,-27.08305 60.15613,-40.6247 104.29688,-40.625 17.44773,3e-4 33.85397,2.34405 49.21875,7.03125 15.49456,4.55758 30.01278,11.45862 43.55469,20.70313"
       mask="url(#mask3785)" />
    <flowRoot
       xml:space="preserve"
       id="flowRoot3793"
       style="font-size:52px;font-style:normal;font-weight:normal;line-height:125%;letter-spacing:0px;word-spacing:0px;fill:#ffffff;fill-opacity:1;stroke:none;font-family:Sans;opacity:0.69545455"
       transform="matrix(1.2509171,0,0,1.2509171,-2.5753304,829.9572)"><flowRegion
         id="flowRegion3795"><rect
           id="rect3797"
           width="290"
           height="80"
           x="10"
           y="130"
           style="font-size:52px;fill:#ffffff;fill-opacity:1" /></flowRegion><flowPara
         id="flowPara3799"
         style="font-size:36px;font-style:normal;font-variant:normal;font-weight:bold;font-stretch:normal;fill:#ffffff;fill-opacity:1;font-family:Crushed;-inkscape-font-specification:Crushed Bold">Terra Caelumque</flowPara></flowRoot>  </g>
</svg>
