<?xml version="1.0" encoding="UTF-8" standalone="no"?>
<!-- Created with Inkscape (http://www.inkscape.org/) -->

<svg
   xmlns:dc="http://purl.org/dc/elements/1.1/"
   xmlns:cc="http://creativecommons.org/ns#"
   xmlns:rdf="http://www.w3.org/1999/02/22-rdf-syntax-ns#"
   xmlns:svg="http://www.w3.org/2000/svg"
   xmlns="http://www.w3.org/2000/svg"
   xmlns:sodipodi="http://sodipodi.sourceforge.net/DTD/sodipodi-0.dtd"
   xmlns:inkscape="http://www.inkscape.org/namespaces/inkscape"
   width="50"
   height="50"
   id="svg3021"
   version="1.1"
   inkscape:version="0.48.4 r9939"
   sodipodi:docname="codepen.svg">
  <defs
     id="defs3023">
    <linearGradient
       id="SVGID_1_"
       gradientUnits="userSpaceOnUse"
       x1="71.366203"
       y1="132.875"
       x2="71.366203"
       y2="121.375"
       gradientTransform="matrix(4.1667,0,0,-4.1667,-97.3177,629.646)">
      <stop
         offset="0"
         style="stop-color:#F5F5F5"
         id="stop4" />
      <stop
         offset="0.2762"
         style="stop-color:#EEEEEE"
         id="stop6" />
      <stop
         offset="0.6676"
         style="stop-color:#DCDCDC"
         id="stop8" />
      <stop
         offset="0.8292"
         style="stop-color:#D2D2D2"
         id="stop10" />
    </linearGradient>
  </defs>
  <sodipodi:namedview
     id="base"
     pagecolor="#ffffff"
     bordercolor="#666666"
     borderopacity="1.0"
     inkscape:pageopacity="0.0"
     inkscape:pageshadow="2"
     inkscape:zoom="0.96202242"
     inkscape:cx="-30.014421"
     inkscape:cy="-57.405251"
     inkscape:document-units="px"
     inkscape:current-layer="layer1"
     showgrid="true"
     inkscape:object-nodes="true"
     showguides="true"
     inkscape:guide-bbox="true"
     inkscape:snap-global="false"
     inkscape:window-width="958"
     inkscape:window-height="1020"
     inkscape:window-x="0"
     inkscape:window-y="0"
     inkscape:window-maximized="0">
    <inkscape:grid
       type="xygrid"
       id="grid4174"
       empspacing="2"
       visible="true"
       enabled="true"
       snapvisiblegridlinesonly="true"
       spacingy="25px"
       spacingx="25px"
       color="#0000ff"
       opacity="0.0745098" />
  </sodipodi:namedview>
  <metadata
     id="metadata3026">
    <rdf:RDF>
      <cc:Work
         rdf:about="">
        <dc:format>image/svg+xml</dc:format>
        <dc:type
           rdf:resource="http://purl.org/dc/dcmitype/StillImage" />
        <dc:title />
      </cc:Work>
    </rdf:RDF>
  </metadata>
  <g
     inkscape:label="Capa 1"
     inkscape:groupmode="layer"
     id="layer1"
     transform="translate(0,-1002.3622)">
    <path
       style="fill:#000000;fill-opacity:1"
       inkscape:connector-curvature="0"
       id="path18"
       d="m 36.58789,1023.6512 c -0.005,-0.028 -0.01,-0.056 -0.0175,-0.084 -0.005,-0.017 -0.0103,-0.032 -0.0156,-0.048 -0.008,-0.024 -0.016,-0.049 -0.0256,-0.072 -0.007,-0.017 -0.0147,-0.033 -0.0222,-0.048 -0.0106,-0.023 -0.0215,-0.045 -0.0341,-0.066 -0.009,-0.016 -0.0187,-0.031 -0.0284,-0.046 -0.0134,-0.021 -0.0272,-0.041 -0.0421,-0.061 -0.0109,-0.015 -0.0222,-0.029 -0.0341,-0.043 -0.0156,-0.019 -0.0325,-0.037 -0.0494,-0.054 -0.0131,-0.013 -0.0263,-0.026 -0.0401,-0.039 -0.0181,-0.017 -0.0368,-0.032 -0.0566,-0.047 -0.015,-0.012 -0.0297,-0.024 -0.0453,-0.034 -0.006,0 -0.0106,-0.01 -0.0166,-0.013 l -10.60968,-7.0738 c -0.33484,-0.2235 -0.77159,-0.2235 -1.10643,0 l -10.61031,7.0735 c -0.006,0 -0.0106,0.01 -0.0166,0.012 -0.0156,0.011 -0.0303,0.023 -0.0453,0.034 -0.0194,0.015 -0.0385,0.031 -0.0566,0.047 -0.0137,0.013 -0.0269,0.026 -0.0397,0.039 -0.0175,0.017 -0.0338,0.035 -0.0497,0.054 -0.0119,0.014 -0.0231,0.028 -0.0341,0.044 -0.015,0.02 -0.0288,0.04 -0.0422,0.061 -0.01,0.015 -0.0194,0.03 -0.0285,0.046 -0.0125,0.022 -0.0234,0.044 -0.0338,0.066 -0.007,0.016 -0.0157,0.032 -0.0222,0.048 -0.01,0.024 -0.0181,0.048 -0.0259,0.072 -0.005,0.016 -0.0109,0.032 -0.0153,0.047 -0.007,0.028 -0.0125,0.055 -0.0175,0.084 -0.002,0.014 -0.006,0.029 -0.008,0.043 -0.006,0.043 -0.009,0.086 -0.009,0.1303 v 7.075 c 0,0.044 0.003,0.088 0.009,0.1304 0.002,0.016 0.006,0.028 0.009,0.043 0.005,0.028 0.009,0.056 0.0187,0.084 0.004,0.016 0.009,0.031 0.0156,0.048 0.008,0.025 0.0157,0.05 0.025,0.073 0.007,0.016 0.0157,0.031 0.0219,0.047 0.0103,0.022 0.0219,0.044 0.0344,0.067 0.009,0.016 0.0187,0.031 0.0281,0.046 0.0134,0.022 0.0281,0.041 0.0438,0.059 0.0109,0.016 0.0219,0.028 0.0343,0.043 0.0159,0.019 0.0313,0.037 0.05,0.054 0.0128,0.013 0.025,0.028 0.0406,0.038 0.0181,0.016 0.0376,0.031 0.0563,0.048 0.015,0.012 0.0313,0.022 0.0438,0.034 0.006,0 0.009,0.01 0.0156,0.012 l 10.6075,7.0772 c 0.16757,0.1125 0.35954,0.1688 0.55337,0.1679 0.19384,-9e-4 0.3858,-0.056 0.55337,-0.1679 l 10.61031,-7.0735 c 0.006,0 0.0109,-0.01 0.0166,-0.012 0.0157,-0.011 0.0303,-0.022 0.0453,-0.034 0.0194,-0.015 0.0385,-0.031 0.0566,-0.048 0.0137,-0.012 0.0269,-0.026 0.0401,-0.039 0.0172,-0.017 0.0338,-0.035 0.0494,-0.054 0.0119,-0.014 0.0231,-0.028 0.0341,-0.043 0.015,-0.02 0.0288,-0.04 0.0422,-0.061 0.01,-0.015 0.0194,-0.03 0.0284,-0.046 0.0125,-0.022 0.0234,-0.044 0.0341,-0.067 0.007,-0.016 0.0153,-0.032 0.0222,-0.048 0.01,-0.024 0.0178,-0.048 0.0257,-0.073 0.005,-0.016 0.0109,-0.032 0.0157,-0.048 0.007,-0.028 0.0122,-0.056 0.0175,-0.084 0.002,-0.014 0.006,-0.029 0.008,-0.043 0.006,-0.043 0.009,-0.086 0.009,-0.1304 v -7.0738 c 0,-0.044 -0.003,-0.087 -0.009,-0.1303 -0.002,-0.015 -0.007,-0.028 -0.0104,-0.043 z m -11.59074,6.0702 -3.52813,-2.3598 3.52813,-2.3601 3.52843,2.3601 -3.52843,2.3598 z m -0.99732,-6.4529 -4.32503,2.8928 -3.49123,-2.3354 7.81626,-5.2107 v 4.6533 z m -6.11926,4.0928 -2.49548,1.6691 v -3.3383 l 2.49548,1.6692 z m 1.79423,1.2011 4.32503,2.8925 v 4.6533 l -7.81626,-5.2113 3.49123,-2.3351 z m 6.31997,2.8919 4.32504,-2.8925 3.49154,2.3351 -7.81658,5.2107 v -4.6533 z m 6.11927,-4.0924 2.49579,-1.6695 v 3.3386 l -2.49579,-1.6698 z m -1.79423,-1.2006 -4.32504,-2.8925 v -4.6536 l 7.81658,5.2107 -3.49154,2.3354 z" />
  </g>
</svg>
