<?xml version="1.0" encoding="UTF-8" standalone="no"?>
<!-- Created with Inkscape (http://www.inkscape.org/) -->

<svg
   xmlns:dc="http://purl.org/dc/elements/1.1/"
   xmlns:cc="http://creativecommons.org/ns#"
   xmlns:rdf="http://www.w3.org/1999/02/22-rdf-syntax-ns#"
   xmlns:svg="http://www.w3.org/2000/svg"
   xmlns="http://www.w3.org/2000/svg"
   xmlns:sodipodi="http://sodipodi.sourceforge.net/DTD/sodipodi-0.dtd"
   xmlns:inkscape="http://www.inkscape.org/namespaces/inkscape"
   width="50"
   height="50"
   id="svg3021"
   version="1.1"
   inkscape:version="0.48.4 r9939"
   sodipodi:docname="googleplus.svg">
  <defs
     id="defs3023">
    <linearGradient
       id="SVGID_1_"
       gradientUnits="userSpaceOnUse"
       x1="71.366203"
       y1="132.875"
       x2="71.366203"
       y2="121.375"
       gradientTransform="matrix(4.1667,0,0,-4.1667,-97.3177,629.646)">
      <stop
         offset="0"
         style="stop-color:#F5F5F5"
         id="stop4" />
      <stop
         offset="0.2762"
         style="stop-color:#EEEEEE"
         id="stop6" />
      <stop
         offset="0.6676"
         style="stop-color:#DCDCDC"
         id="stop8" />
      <stop
         offset="0.8292"
         style="stop-color:#D2D2D2"
         id="stop10" />
    </linearGradient>
  </defs>
  <sodipodi:namedview
     id="base"
     pagecolor="#ffffff"
     bordercolor="#666666"
     borderopacity="1.0"
     inkscape:pageopacity="0.0"
     inkscape:pageshadow="2"
     inkscape:zoom="0.96202242"
     inkscape:cx="30.267809"
     inkscape:cy="-79.326062"
     inkscape:document-units="px"
     inkscape:current-layer="layer1"
     showgrid="true"
     inkscape:object-nodes="true"
     showguides="true"
     inkscape:guide-bbox="true"
     inkscape:snap-global="false"
     inkscape:window-width="958"
     inkscape:window-height="1020"
     inkscape:window-x="0"
     inkscape:window-y="0"
     inkscape:window-maximized="0">
    <inkscape:grid
       type="xygrid"
       id="grid4174"
       empspacing="2"
       visible="true"
       enabled="true"
       snapvisiblegridlinesonly="true"
       spacingy="25px"
       spacingx="25px"
       color="#0000ff"
       opacity="0.0745098" />
  </sodipodi:namedview>
  <metadata
     id="metadata3026">
    <rdf:RDF>
      <cc:Work
         rdf:about="">
        <dc:format>image/svg+xml</dc:format>
        <dc:type
           rdf:resource="http://purl.org/dc/dcmitype/StillImage" />
        <dc:title />
      </cc:Work>
    </rdf:RDF>
  </metadata>
  <g
     inkscape:label="Capa 1"
     inkscape:groupmode="layer"
     id="layer1"
     transform="translate(0,-1002.3622)">
    <g
       id="g3860"
       transform="matrix(0.16883292,0,0,0.16883292,-37.32141,934.80717)">
      <path
         id="path14-1"
         d="m 374.03522,558.32683 c -2.45273,-1.05433 -4.88782,-1.63663 -7.31408,-1.7425 -1.68956,-0.0529 -4.54814,-0.21175 -8.58015,-0.47202 -4.03642,-0.26468 -7.2082,-0.42349 -9.52859,-0.47202 -2.16158,-0.0529 -4.25699,-0.13234 -6.28623,-0.24263 -2.02924,-0.10146 -3.81144,-0.36614 -5.33778,-0.78963 -1.58369,-0.37056 -2.92916,-1.06756 -4.03642,-2.09982 -1.10726,-1.02345 -1.65868,-2.5145 -1.65868,-4.46874 0,-1.8969 0.6573,-3.40118 1.9763,-4.50403 1.31901,-1.10284 2.58066,-1.87042 3.79379,-2.29392 h 9.5683 c 7.38025,0 13.85176,-2.37332 19.41452,-7.11557 5.56276,-4.74665 8.34193,-10.54321 8.34193,-17.39851 0,-2.6336 -0.47202,-5.32454 -1.42046,-8.06842 -0.94845,-2.73948 -2.3998,-5.24514 -4.34963,-7.5126 V 500.6744 H 386.965 v -7.59199 h -27.20503 c -2.42626,-0.73671 -4.81282,-1.34548 -7.15968,-1.8175 -2.34686,-0.47201 -4.70695,-0.71464 -7.07586,-0.71464 -8.59339,0 -15.6472,2.37333 -21.15261,7.11998 -5.50982,4.74665 -8.26694,10.8079 -8.26694,18.18815 0,4.90546 1.394,9.21539 4.19082,12.92978 2.79241,3.7188 6.71854,6.76265 11.78282,9.13598 v 1.18666 c -4.00554,1.68515 -6.99646,3.70557 -8.97718,6.04801 -1.9763,2.34686 -2.96445,4.91429 -2.96445,7.71111 0,2.21452 0.42349,4.07171 1.26607,5.57599 0.84257,1.50429 1.94983,2.81006 3.32177,3.91732 1.21314,0.94844 2.66007,1.77778 4.34963,2.48802 1.68515,0.71023 3.32178,1.30577 4.90105,1.77779 v 1.10725 c -6.53767,0.2691 -11.91515,1.94984 -16.13244,5.05987 -4.21729,3.11002 -6.32593,7.35378 -6.32593,12.73567 0,6.64355 2.92916,11.68577 8.77866,15.14429 5.8495,3.45853 14.6811,5.18338 26.49038,5.18338 7.22144,0 13.2871,-0.68817 18.19256,-2.06011 4.90547,-1.37194 9.11834,-3.29531 12.65186,-5.77451 3.32178,-2.42626 5.79657,-5.28484 7.4376,-8.58015 1.63221,-3.2953 2.45273,-6.81118 2.45273,-10.55645 0,-3.74527 -0.60877,-6.88176 -1.81749,-9.4139 -1.21313,-2.52772 -2.87622,-4.79518 -4.98487,-6.80236 -2.00277,-1.83955 -4.23052,-3.29089 -6.68325,-4.34521 z m -18.34696,-28.03437 c -2.45273,3.66586 -5.94655,5.49659 -10.47704,5.49659 -4.05848,0 -7.36702,-1.84396 -9.92562,-5.53629 -2.55861,-3.68792 -3.8335,-8.46104 -3.8335,-14.31496 0,-2.58066 0.22498,-5.09956 0.67053,-7.55229 0.44555,-2.45273 1.19549,-4.54814 2.25422,-6.28623 1.10726,-1.89689 2.54537,-3.36148 4.30992,-4.38933 1.76456,-1.02785 3.88644,-1.54398 6.36564,-1.54398 4.53049,0 8.05078,1.83513 10.55645,5.49658 2.50125,3.66587 3.7585,8.58015 3.7585,14.74727 0,5.58923 -1.22637,10.21678 -3.6791,13.88264 z m 12.17984,65.08561 c -4.4555,2.9821 -10.56086,4.46873 -18.30726,4.46873 -4.48196,0 -8.27576,-0.43672 -11.3902,-1.30136 -3.11003,-0.86904 -5.58923,-1.98953 -7.43319,-3.36588 -1.94983,-1.42047 -3.32177,-2.97769 -4.11141,-4.66725 -0.78964,-1.68515 -1.18666,-3.44971 -1.18666,-5.29808 0,-4.11141 1.1999,-7.46848 3.59969,-10.08002 2.39538,-2.61154 6.44504,-4.47315 12.14014,-5.5804 6.06124,0 11.3902,0.13234 15.97363,0.39702 4.58785,0.2691 7.61847,0.5029 9.09628,0.71023 2.79241,0.68377 4.87459,1.97631 6.25094,3.87761 1.37194,1.90131 2.05571,4.31875 2.05571,7.27438 -0.009,6.06125 -2.23217,10.58733 -6.68767,13.56502 z"
         inkscape:connector-curvature="0"
         style="fill:#000000;fill-opacity:1" />
      <path
         id="path16"
         d="m 404.69878,516.34806 v 15.46192 h 6.03477 v -15.46192 h 15.39133 v -5.93331 h -15.39133 v -15.49721 h -6.03477 v 15.49721 h -15.39134 v 5.93331 h 15.39134 z"
         inkscape:connector-curvature="0"
         style="fill:#000000;fill-opacity:1" />
    </g>
  </g>
</svg>
