<?xml version="1.0" encoding="UTF-8" standalone="no"?>
<!-- Created with Inkscape (http://www.inkscape.org/) -->

<svg
   xmlns:dc="http://purl.org/dc/elements/1.1/"
   xmlns:cc="http://creativecommons.org/ns#"
   xmlns:rdf="http://www.w3.org/1999/02/22-rdf-syntax-ns#"
   xmlns:svg="http://www.w3.org/2000/svg"
   xmlns="http://www.w3.org/2000/svg"
   xmlns:sodipodi="http://sodipodi.sourceforge.net/DTD/sodipodi-0.dtd"
   xmlns:inkscape="http://www.inkscape.org/namespaces/inkscape"
   width="50"
   height="50"
   id="svg3021"
   version="1.1"
   inkscape:version="0.48.4 r9939"
   sodipodi:docname="lastfm.svg">
  <defs
     id="defs3023">
    <linearGradient
       id="SVGID_1_"
       gradientUnits="userSpaceOnUse"
       x1="71.366203"
       y1="132.875"
       x2="71.366203"
       y2="121.375"
       gradientTransform="matrix(4.1667,0,0,-4.1667,-97.3177,629.646)">
      <stop
         offset="0"
         style="stop-color:#F5F5F5"
         id="stop4" />
      <stop
         offset="0.2762"
         style="stop-color:#EEEEEE"
         id="stop6" />
      <stop
         offset="0.6676"
         style="stop-color:#DCDCDC"
         id="stop8" />
      <stop
         offset="0.8292"
         style="stop-color:#D2D2D2"
         id="stop10" />
    </linearGradient>
  </defs>
  <sodipodi:namedview
     id="base"
     pagecolor="#ffffff"
     bordercolor="#666666"
     borderopacity="1.0"
     inkscape:pageopacity="0.0"
     inkscape:pageshadow="2"
     inkscape:zoom="1.9240448"
     inkscape:cx="188.60939"
     inkscape:cy="55.688303"
     inkscape:document-units="px"
     inkscape:current-layer="layer1"
     showgrid="true"
     inkscape:object-nodes="true"
     showguides="true"
     inkscape:guide-bbox="true"
     inkscape:snap-global="false"
     inkscape:window-width="958"
     inkscape:window-height="1020"
     inkscape:window-x="0"
     inkscape:window-y="0"
     inkscape:window-maximized="0">
    <inkscape:grid
       type="xygrid"
       id="grid4174"
       empspacing="2"
       visible="true"
       enabled="true"
       snapvisiblegridlinesonly="true"
       spacingy="25px"
       spacingx="25px"
       color="#0000ff"
       opacity="0.0745098" />
  </sodipodi:namedview>
  <metadata
     id="metadata3026">
    <rdf:RDF>
      <cc:Work
         rdf:about="">
        <dc:format>image/svg+xml</dc:format>
        <dc:type
           rdf:resource="http://purl.org/dc/dcmitype/StillImage" />
        <dc:title />
      </cc:Work>
    </rdf:RDF>
  </metadata>
  <g
     inkscape:label="Capa 1"
     inkscape:groupmode="layer"
     id="layer1"
     transform="translate(0,-1002.3622)">
    <g
       transform="matrix(0.71928864,0,0,0.71928864,-118.85005,955.15341)"
       id="g14"
       style="fill:#000000;fill-opacity:1">
      <path
         style="fill:#000000;fill-opacity:1;fill-rule:evenodd"
         inkscape:connector-curvature="0"
         clip-rule="evenodd"
         d="m 199.366,104.304 c 0.63,0.481 1.204,0.931 1.792,1.36 0.216,0.159 0.225,0.271 0.055,0.482 -1.282,1.62 -2.878,2.78 -4.84,3.406 -1.443,0.459 -2.935,0.579 -4.408,0.315 -3.042,-0.543 -5.386,-2.11 -6.852,-4.953 -0.994,-1.929 -1.279,-3.974 -0.958,-6.061 0.507,-3.306 2.273,-5.759 5.299,-7.208 1.822,-0.873 3.777,-1.043 5.714,-0.719 3.104,0.52 5.405,2.327 6.859,5.117 0.981,1.88 1.762,3.867 2.628,5.807 0.519,1.164 0.969,2.362 1.558,3.486 0.77,1.465 2.415,2.314 4.193,1.984 1.062,-0.196 1.979,-0.562 2.543,-1.536 0.826,-1.431 0.259,-3.255 -1.254,-3.89 -0.877,-0.366 -1.815,-0.581 -2.715,-0.897 -1.602,-0.562 -2.996,-1.415 -3.848,-2.971 -0.475,-0.869 -0.633,-1.806 -0.566,-2.797 0.064,-0.955 0.275,-1.852 0.859,-2.625 0.808,-1.073 1.902,-1.629 3.214,-1.738 0.854,-0.071 1.705,-0.114 2.551,0.15 1.411,0.44 2.366,1.387 3.021,2.679 0.036,0.073 -0.047,0.285 -0.131,0.333 -0.608,0.342 -1.227,0.668 -1.856,0.97 -0.071,0.034 -0.279,-0.086 -0.341,-0.187 -0.312,-0.509 -0.672,-0.947 -1.23,-1.208 -0.858,-0.398 -2.305,-0.223 -2.957,0.363 -0.577,0.518 -0.585,1.206 -0.538,1.88 0.099,1.425 1.141,2.057 2.277,2.518 0.868,0.352 1.799,0.544 2.679,0.869 1.766,0.651 3.072,1.78 3.588,3.691 0.807,2.992 -0.854,5.75 -3.573,6.653 -1.234,0.409 -2.494,0.54 -3.757,0.293 -1.837,-0.357 -3.32,-1.338 -4.239,-2.995 -0.67,-1.211 -1.165,-2.521 -1.74,-3.785 -0.916,-2.011 -1.759,-4.06 -2.772,-6.018 -0.838,-1.618 -2.192,-2.759 -3.937,-3.336 -1.496,-0.494 -2.996,-0.463 -4.497,0.052 -1.943,0.667 -3.288,1.972 -4.055,3.869 -0.416,1.027 -0.519,2.119 -0.466,3.235 0.07,1.466 0.548,2.765 1.426,3.916 0.894,1.174 2.076,1.926 3.485,2.296 3.04,0.799 5.527,-0.131 7.538,-2.51 0.072,-0.086 0.147,-0.17 0.251,-0.29 z"
         id="path16-8" />
    </g>
  </g>
</svg>
