<?xml version="1.0" encoding="UTF-8" standalone="no"?>
<!-- Created with Inkscape (http://www.inkscape.org/) -->

<svg
   xmlns:dc="http://purl.org/dc/elements/1.1/"
   xmlns:cc="http://creativecommons.org/ns#"
   xmlns:rdf="http://www.w3.org/1999/02/22-rdf-syntax-ns#"
   xmlns:svg="http://www.w3.org/2000/svg"
   xmlns="http://www.w3.org/2000/svg"
   xmlns:sodipodi="http://sodipodi.sourceforge.net/DTD/sodipodi-0.dtd"
   xmlns:inkscape="http://www.inkscape.org/namespaces/inkscape"
   width="600"
   height="150"
   id="svg3038"
   version="1.1"
   inkscape:version="0.48.4 r9939"
   sodipodi:docname="Nuevo documento 2">
  <defs
     id="defs3040" />
  <sodipodi:namedview
     id="base"
     pagecolor="#ffffff"
     bordercolor="#666666"
     borderopacity="1.0"
     inkscape:pageopacity="0.0"
     inkscape:pageshadow="2"
     inkscape:zoom="1"
     inkscape:cx="399.91235"
     inkscape:cy="269.08931"
     inkscape:document-units="px"
     inkscape:current-layer="layer1"
     showgrid="false"
     inkscape:window-width="1920"
     inkscape:window-height="1021"
     inkscape:window-x="0"
     inkscape:window-y="0"
     inkscape:window-maximized="1" />
  <metadata
     id="metadata3043">
    <rdf:RDF>
      <cc:Work
         rdf:about="">
        <dc:format>image/svg+xml</dc:format>
        <dc:type
           rdf:resource="http://purl.org/dc/dcmitype/StillImage" />
        <dc:title></dc:title>
      </cc:Work>
    </rdf:RDF>
  </metadata>
  <g
     inkscape:label="Capa 1"
     inkscape:groupmode="layer"
     id="layer1"
     transform="translate(0,-902.36218)">
    <g
       id="g4047"
       transform="translate(-362.72611,425.08286)">
      <path
         inkscape:connector-curvature="0"
         d="m 427.12747,566.85265 c -2.45735,-1.49314 -5.12071,-2.61466 -7.66984,-3.94188 -3.63428,-2.15171 -7.24168,-4.35308 -10.81241,-6.60899 -2.07547,-1.27089 -3.98896,-2.77642 -5.90577,-4.26924 -1.0647,-0.88978 -1.96946,-1.93587 -2.53452,-3.2067 -0.27836,-0.91908 -0.1242,-1.85653 0.76295,-2.38273 2.01391,-1.1945 4.06404,-2.32684 6.09606,-3.49027 0.34909,-0.15464 0.69137,-0.3257 1.04728,-0.46392 0.57541,-0.22345 1.16322,-0.41358 1.74483,-0.62037 0.79551,-0.30165 1.59425,-0.59493 2.38653,-0.90496 2.9692,-1.16188 5.91777,-2.37987 8.86574,-3.59424 4.41385,-1.93586 8.86996,-3.7947 13.19877,-5.9173 1.52648,-0.75337 0.82314,-0.37499 2.11915,-1.11799 0,0 -4.80949,3.8775 -4.80949,3.8775 l 0,0 c -1.26824,0.66463 -0.58405,0.31963 -2.05745,1.02521 -4.29612,2.00929 -8.65673,3.88159 -13.02214,5.73403 -2.98139,1.22129 -5.96089,2.44937 -8.9522,3.64624 -0.45394,0.18163 -3.5849,1.39644 -4.29054,1.70274 -0.36181,0.15705 -0.70909,0.34565 -1.06364,0.51847 1.51604,-0.88953 3.03942,-1.76665 4.5481,-2.66858 0.30204,-0.18056 -0.67035,0.27124 -0.91801,0.52122 -0.2812,0.28382 -0.26152,0.71496 -0.19597,1.06952 0.48452,1.19156 1.34146,2.15126 2.32136,2.97253 1.86552,1.4997 3.7232,3.01609 5.75523,4.29017 3.53381,2.26125 7.04674,4.56496 10.71746,6.60086 2.63102,1.29739 5.35751,2.39525 7.93174,3.80738 0,0 -5.26322,3.4213 -5.26322,3.4213 z"
         id="path3950"
         style="fill:#000000;fill-opacity:1;stroke:none" />
      <path
         inkscape:connector-curvature="0"
         d="m 860.09454,584.55055 c 1.70946,-5.52383 3.47718,-11.02745 5.36281,-16.4945 4.50944,-12.30687 8.61947,-24.75339 12.71295,-37.20295 3.43442,-10.18734 6.90889,-20.36084 10.40443,-30.5273 0,0 5.23828,-2.44399 5.23828,-2.44399 l 0,0 c -3.85558,10.17302 -7.44603,20.43877 -10.91609,30.74963 -4.08505,12.35233 -8.17715,24.70202 -12.33474,37.03025 -1.77953,5.34959 -3.46783,10.72641 -4.82528,16.20068 0,0 -5.64236,2.68818 -5.64236,2.68818 z"
         id="path3971"
         style="fill:#000000;fill-opacity:1;stroke:none" />
      <path
         inkscape:connector-curvature="0"
         d="m 891.91694,536.79372 c 4.9633,2.82379 10.02733,5.46536 15.04082,8.1981 5.13162,2.69652 10.16733,5.63023 14.89717,8.98978 0.86461,0.63242 1.74786,1.2401 2.61467,1.86901 0.15636,0.11344 0.71605,0.50392 0.82041,0.74771 0.0736,0.17202 0.0553,0.37013 0.083,0.5552 -0.16382,0.23583 -0.28117,0.51199 -0.49148,0.70751 -0.53769,0.49988 -2.4401,1.62591 -2.9107,1.89883 -2.42588,1.40692 -4.85583,2.80709 -7.30019,4.18166 -1.15482,0.64941 -4.65229,2.45465 -5.71192,3.0057 -6.88755,3.47654 -14.00833,6.45647 -21.16712,9.32081 0,0 4.41059,-3.46749 4.41059,-3.46749 l 0,0 c 7.21224,-2.8644 14.36274,-5.8981 21.25901,-9.46893 1.04225,-0.55014 2.08788,-1.09391 3.12673,-1.65042 0.90327,-0.48387 3.40266,-2.21604 2.69952,-1.47065 -0.77748,0.82419 -1.94833,1.15745 -2.93293,1.71809 -0.56065,0.31924 1.11242,-0.65401 1.66087,-0.99376 0.37377,-0.23155 0.72658,-0.49646 1.10528,-0.71984 0.19274,-0.11369 0.40382,-0.19294 0.60573,-0.28941 0.0601,-0.0316 0.18499,-0.0271 0.18036,-0.0949 -0.0101,-0.14786 -0.57802,-0.57053 -0.68157,-0.65224 -0.82812,-0.65349 -1.66506,-1.29622 -2.49144,-1.95211 -4.55244,-3.49115 -9.477,-6.50182 -14.59686,-9.08424 -5.09674,-2.7266 -10.20702,-5.43593 -15.41155,-7.95201 0,0 5.19165,-3.39638 5.19165,-3.39638 z"
         id="path3983"
         style="fill:#000000;fill-opacity:1;stroke:none" />
      <path
         transform="translate(0,332.36218)"
         inkscape:connector-curvature="0"
         d="m 472.95937,274.07345 c -1.4076,-9.03889 -2.22991,-18.12688 -2.7661,-27.25491 -0.15786,-11.62572 -0.71593,-23.25803 -0.39796,-34.88638 0.18591,-6.79869 0.50546,-10.08379 1.0032,-16.84154 0.70529,-5.95918 0.87202,-8.50529 2.03551,-14.23731 0.734,-3.61608 1.41038,-6.65537 3.23809,-9.88345 1.85948,-3.2842 2.93026,-3.81321 5.67341,-6.17597 5.9108,-3.43861 12.37,-9.25008 19.87023,-8.04516 0.94338,0.15156 1.9047,0.36054 2.7518,0.80253 2.14121,1.11719 3.09624,2.64784 4.58197,4.44697 2.27314,3.77893 4.42277,8.64071 4.37108,13.16228 -0.01,0.86335 -0.19693,1.71555 -0.29539,2.57332 -0.31695,0.91943 -0.53965,1.87696 -0.95083,2.75828 -3.24243,6.94962 -10.37621,13.19004 -15.99297,18.19464 -10.61347,9.26192 -22.46586,16.96236 -35.15447,23.09679 -3.77321,1.56395 -7.06767,2.26593 -10.65972,0.0456 -2.02057,-2.06178 -2.20593,-3.71915 -0.0328,-5.71812 4.05368,-2.22638 8.10735,-4.45276 12.16102,-6.67914 0,0 -9.78287,7.67735 -9.78287,7.67735 l 0,0 c 3.09122,-1.85231 6.18244,-3.70462 9.27366,-5.55693 -1.81037,0.80431 -3.05929,1.80623 -1.14128,3.46449 3.20387,1.64561 6.56727,0.57961 9.69219,-0.82805 2.77034,-1.37672 9.56917,-4.8392 -3.94747,2.59444 -1.4473,0.79596 2.83911,-1.69089 4.22012,-2.59699 5.0903,-3.3398 9.89831,-7.09356 14.50028,-11.0744 5.71473,-5.01347 12.20262,-10.59538 15.77415,-17.46076 0.41436,-0.7965 0.67748,-1.66297 1.01622,-2.49445 0.13294,-0.77064 0.35794,-1.53097 0.39881,-2.31192 0.0395,-0.75432 -0.0727,-1.51008 -0.15949,-2.26042 -0.42725,-3.69181 -1.71019,-7.19018 -3.73251,-10.30897 -2.10019,-2.43967 -3.3621,-4.03387 -6.77913,-4.35797 -0.93472,-0.0887 -1.88668,-0.0682 -2.81595,0.0659 -1.03597,0.14953 -3.81274,1.48754 -3.0418,0.77956 2.04561,-1.87855 4.69472,-2.96876 7.04207,-4.45314 -2.79568,2.09306 -4.05425,2.66185 -6.02042,5.72094 -1.98049,3.08137 -2.80193,6.20999 -3.63101,9.74754 -1.3587,5.79736 -1.51832,8.19027 -2.3295,14.24581 -0.48156,6.15725 -0.89905,10.62715 -1.10735,16.81338 -0.38853,11.53883 0.11814,23.0957 0.73237,34.61617 0.63541,8.97058 1.50068,17.92329 3.37587,26.73392 0,0 -10.97301,5.88601 -10.97301,5.88601 z"
         id="path3989"
         style="fill:#000000;fill-opacity:1;stroke:none" />
      <path
         transform="translate(0,332.36218)"
         inkscape:connector-curvature="0"
         d="m 508.04049,210.34718 c -3.50367,-1.74537 -6.57621,-2.67562 -10.49781,-2.2857 -0.59778,0.20087 -1.21452,0.35229 -1.79334,0.60262 -0.61384,0.26547 -2.35486,1.26888 -1.77274,0.93962 2.95282,-1.67015 5.86223,-3.42334 8.88534,-4.96261 0.62285,-0.31713 -1.13804,0.81644 -1.65849,1.28295 -1.19116,1.06769 -1.69369,1.81892 -2.66863,3.06311 -2.41256,3.2149 -3.32051,7.04833 -3.83827,10.95325 -0.30711,3.04358 -0.53759,4.57492 2.54099,5.81617 3.48763,1.19456 6.8099,0.30007 10.16393,-0.86415 1.8315,-0.62395 1.87464,-0.55591 3.55827,-1.44671 0.51431,-0.27212 2.01619,-1.16251 1.50722,-0.88053 -14.83822,8.2208 -10.46034,6.91771 -7.26131,2.9722 1.65526,-2.37361 2.49815,-5.1288 3.34943,-7.85774 1.60529,-5.19114 -2.57527,-1.36497 11.81011,-6.45438 0.33509,-0.11856 0.13914,0.69839 0.17295,1.05223 0.10415,1.08992 0.0998,2.18749 0.15473,3.28099 0.47121,5.19422 2.51649,9.97541 5.15849,14.40618 2.68797,4.09204 5.79812,6.65958 10.19527,8.68377 2.59388,1.21801 5.46192,1.15446 8.20485,1.66925 0,0 -10.25658,7.19416 -10.25658,7.19416 l 0,0 c -2.82488,-0.4142 -5.66322,-0.78916 -8.27064,-2.05453 -4.61637,-2.35614 -7.58297,-4.98278 -10.46293,-9.35518 -2.75715,-4.57452 -4.81612,-9.51118 -5.55445,-14.84047 -0.24594,-2.40549 -0.1447,-1.19 -0.27567,-3.14549 -0.0145,-0.21673 -0.23284,-0.54083 -0.0451,-0.65009 3.63316,-2.11452 7.49221,-3.8171 11.1818,-5.83153 0.11418,-0.0623 -0.29255,-0.15461 -0.38511,-0.0632 -0.20093,0.19841 -0.22512,0.51796 -0.33768,0.77695 -0.87346,2.83416 -1.73326,5.68136 -3.22707,8.26602 -3.65616,5.34368 -5.83975,5.00285 -13.81016,9.7331 -1.6074,0.95394 -3.4032,1.54917 -5.17294,2.11234 -3.62387,1.05739 -7.19557,1.69165 -10.80038,0.16558 -3.43007,-1.86891 -3.64796,-3.45789 -3.25487,-7.19917 0.50839,-4.04711 1.28773,-8.09886 3.60502,-11.55036 0.66689,-0.92109 1.7822,-2.52719 2.56806,-3.34013 0.49214,-0.5091 1.0019,-1.01986 1.60352,-1.39329 5.19713,-3.22586 10.12563,-7.24009 16.18458,-8.42718 3.94793,-0.0402 7.38714,1.10188 10.94503,2.75923 0,0 -10.44542,6.87272 -10.44542,6.87272 z"
         id="path3993"
         style="fill:#000000;fill-opacity:1;stroke:none" />
      <path
         transform="translate(0,332.36218)"
         inkscape:connector-curvature="0"
         d="m 541.0149,176.61718 c -0.13982,4.60861 -0.14139,9.21971 -0.14571,13.82997 0.11174,5.28228 -0.0555,10.55518 -0.32754,15.82923 -0.034,0.65031 -0.0688,1.30059 -0.10211,1.95094 -0.0534,1.04242 -0.0955,1.75186 -0.11951,2.75363 -0.004,0.16899 0.15059,0.43343 -0.002,0.50711 -11.68435,5.65888 -11.92805,8.89572 -11.01489,3.76526 0.78254,-4.09701 2.12263,-7.9805 3.98864,-11.70302 0.30777,-0.49995 0.57344,-1.0284 0.92329,-1.49986 2.9423,-3.96514 13.47878,-7.99661 14.66542,-8.48977 0.43924,-0.18254 3.76395,0.99235 4.05209,1.08672 4.37838,1.6421 8.04982,4.30509 11.17739,7.7328 2.68215,3.48221 3.36107,5.75478 2.61471,10.03921 -1.33199,4.33077 -4.18296,7.89482 -7.31694,11.07121 -0.51527,0.45081 -0.99926,0.94009 -1.54581,1.35242 -0.55105,0.41573 -1.13539,0.78938 -1.73842,1.1253 -4.3663,2.43233 -10.34253,7.69131 -16.38382,7.20359 -0.64966,-0.0524 -1.28195,-0.23632 -1.92292,-0.35449 -0.63141,-0.28009 -1.30969,-0.47223 -1.89423,-0.84026 -3.93366,-2.47668 -5.93441,-7.10253 -7.69979,-11.17444 -1.01617,-2.88521 -2.5125,-6.08601 -1.81231,-9.23684 0.0967,-0.43524 0.29277,-0.84229 0.43915,-1.26344 2.78712,-4.57711 9.08923,-6.14888 13.31505,-8.5342 0,0 -9.79181,7.75268 -9.79181,7.75268 l 0,0 c 3.19648,-1.89762 6.40222,-3.77974 9.58945,-5.69286 0.31805,-0.19091 -0.68238,0.30536 -0.98087,0.52558 -0.29145,0.21503 -0.51352,0.51091 -0.77028,0.76636 -0.19741,0.32275 -0.45,0.61767 -0.59225,0.96825 -1.14543,2.8229 0.47389,6.07159 1.27563,8.72398 1.57425,3.76436 3.449,8.26663 7.30118,10.27423 0.54263,0.2828 1.15899,0.39298 1.73848,0.58947 1.66734,0.14484 1.91576,0.28233 3.58881,-0.0441 0.6196,-0.12088 2.3438,-0.86874 1.82355,-0.51117 -2.80816,1.93006 -5.86772,3.46751 -8.75583,5.27575 -0.57633,0.36085 1.24364,-0.56236 1.81543,-0.93038 0.57624,-0.37087 1.07478,-0.85044 1.61218,-1.27567 3.14675,-2.94076 5.97144,-6.28628 7.54036,-10.35391 0.88335,-3.93903 0.51685,-5.76171 -2.00697,-9.04918 -3.00232,-3.25996 -6.55111,-5.78145 -10.80649,-7.16761 -0.66042,-0.16434 -1.30748,-0.39713 -1.98125,-0.49302 -0.58655,-0.0835 -2.24683,0.31896 -1.77688,-0.0418 2.85527,-2.19196 6.16353,-3.72157 9.19909,-5.65615 0.431,-0.27468 -0.94644,0.3984 -1.37822,0.67185 -1.3133,0.83171 -1.32812,1.11613 -2.24708,2.38457 -1.99153,3.54289 -3.3759,7.27493 -4.00579,11.30404 -1.10192,5.18165 -0.0236,1.34463 -11.53307,7.29232 -0.15265,0.0789 0.0901,-0.33251 0.11472,-0.50256 0.22965,-1.58321 0.22271,-3.19155 0.3974,-4.77998 0.3825,-5.26232 0.53633,-10.52297 0.43854,-15.79998 -0.004,-4.56075 -0.004,-9.12243 -0.1457,-13.68148 0,0 11.18748,-5.70031 11.18748,-5.70031 z"
         id="path3995"
         style="fill:#000000;fill-opacity:1;stroke:none" />
      <path
         transform="translate(0,332.36218)"
         inkscape:connector-curvature="0"
         d="m 579.88719,171.22083 c -0.006,5.06885 -0.87607,10.06942 -1.46769,15.08739 -0.63681,5.40134 -0.61622,5.71526 -1.10124,11.36045 -0.81196,11.04486 -0.90965,22.12228 -1.08049,33.19019 -0.0566,10.03985 1.19925,19.99045 2.89072,29.86487 0.99338,3.57521 1.60499,7.83814 4.41942,10.56054 1.12846,1.09155 1.88897,1.28433 3.28051,1.90027 0.58194,0.0721 1.15988,0.23931 1.74582,0.21629 3.66216,-0.14389 9.1758,-3.38023 12.36091,-5.22802 -2.90581,1.67152 -5.79598,3.37052 -8.71744,5.01455 -0.48446,0.27263 0.9532,-0.57464 1.4045,-0.89923 1.42691,-1.02631 2.19401,-2.14874 2.74327,-3.78852 0.2841,-1.5155 0.17489,-0.75769 0.32994,-2.27311 0,0 11.18257,-5.57836 11.18257,-5.57836 l 0,0 c -0.11352,1.63265 -0.0339,0.80841 -0.24218,2.4724 -0.54676,2.65074 -1.487,4.22392 -3.89376,5.64062 -4.09863,2.41257 -8.24033,4.7512 -12.3605,7.1268 -3.60752,1.94444 -8.77108,4.95562 -12.96462,4.59812 -0.65684,-0.056 -1.27619,-0.33109 -1.91428,-0.49663 -1.5572,-0.83423 -2.2968,-1.07089 -3.54128,-2.40832 -2.81263,-3.02272 -3.45242,-7.40735 -4.45209,-11.22954 -1.53341,-9.98474 -2.75123,-20.02069 -2.80266,-30.13989 0.0469,-11.11267 0.43357,-22.21922 1.14549,-33.31 0.39371,-5.946 0.31924,-5.64732 0.89308,-11.31249 0.4946,-4.88288 1.37132,-9.7813 1.02786,-14.70544 0,0 11.11414,-5.66294 11.11414,-5.66294 z"
         id="path3997"
         style="fill:#000000;fill-opacity:1;stroke:none" />
      <path
         transform="translate(0,332.36218)"
         inkscape:connector-curvature="0"
         d="m 596.26744,221.77381 c -1.37651,-0.17482 -2.84095,-0.29926 -4.20821,0.0424 -0.44989,0.11241 -0.8869,0.28874 -1.29399,0.51082 -0.40558,0.22127 -1.53437,1.02402 -1.1254,0.80908 3.22814,-1.6966 6.39553,-3.50635 9.59329,-5.25952 -2.21464,3.18433 -2.24233,7.10996 -2.00185,10.83425 0.57489,2.4914 0.84493,5.99097 3.49632,7.27337 0.43756,0.21163 0.9417,0.24124 1.41255,0.36185 1.83638,0.17121 3.5271,-0.30271 5.15513,-1.13299 0.60484,-0.30848 2.34892,-1.36222 1.7503,-1.04183 -9.21315,4.93097 -11.29482,7.27078 -7.41286,3.4066 1.77174,-2.28164 3.24268,-5.21586 2.76688,-8.21241 -0.0878,-0.55313 -0.31894,-1.07375 -0.47841,-1.61062 -1.38022,-3.2237 -4.00774,-5.39377 -7.12518,-6.8271 -4.02835,-1.45796 -7.93208,-0.88189 -11.86915,0.47561 -4.30335,1.9388 -5.52307,2.54642 7.65801,-4.48865 0.40494,-0.21612 -0.74694,0.53711 -1.08671,0.84572 -0.29453,0.26752 -0.53989,0.58461 -0.80984,0.87692 0,0 -11.47961,4.90544 -11.47961,4.90544 l 0,0 c 3.55062,-5.08807 9.7778,-7.5811 15.50555,-9.7126 4.29542,-1.20191 8.20376,-1.39189 12.4418,0.27123 3.3229,1.73341 6.10593,4.18264 7.6247,7.6903 0.21288,0.62862 0.50292,1.2362 0.63862,1.88586 0.6717,3.21586 -0.6686,6.50252 -2.39779,9.12794 -4.40996,5.20641 -1.14894,1.70113 -13.59962,9.11015 -2.31102,1.37522 -4.93262,1.97373 -7.57494,1.38678 -0.55035,-0.24064 -1.14317,-0.40123 -1.65106,-0.72193 -2.79577,-1.76537 -3.26181,-5.23601 -3.93375,-8.17819 -0.33159,-3.99548 -0.26223,-8.02193 1.48301,-11.72351 3.8603,-2.46018 7.68682,-4.97419 11.5809,-7.38055 2.15373,-1.33091 4.90759,-1.00671 7.27373,-0.65131 0,0 -10.33242,7.12689 -10.33242,7.12689 z"
         id="path3999"
         style="fill:#000000;fill-opacity:1;stroke:none" />
      <path
         transform="translate(0,332.36218)"
         inkscape:connector-curvature="0"
         d="m 653.33575,242.23565 c 0.22925,-5.06789 0.61177,-10.12478 0.79198,-15.19688 0.0675,-7.54389 -0.37462,-15.0768 -0.79848,-22.6049 -0.29112,-4.2387 -0.33117,-8.49089 -0.61948,-12.72956 -0.031,-0.45505 -0.51439,-1.13319 -0.12041,-1.36301 3.53775,-2.06359 7.45534,-3.39325 11.18301,-5.08988 0.50501,10.41208 3.20522,20.5853 6.3547,30.47197 2.07092,4.91631 5.22378,13.49571 10.19054,16.36643 0.5476,0.3165 1.19181,0.42398 1.78771,0.63597 0.56413,-0.0288 1.14984,0.0707 1.69239,-0.0865 0.67725,-0.19623 2.50727,-1.29092 1.88933,-0.95132 -2.78846,1.53246 -5.46132,3.31494 -8.40183,4.53041 -0.87724,0.36261 1.44429,-1.23721 2.09857,-1.92493 1.85166,-1.94628 2.035,-2.50786 3.44168,-4.78439 2.44486,-4.39761 3.27822,-9.28306 3.29073,-14.25177 -0.37868,1.76255 0.16224,-2.41628 -0.26824,-1.92994 -0.15657,0.17689 -0.14534,0.80097 0.0706,0.70516 3.54479,-1.573 6.72419,-3.93342 10.34351,-5.32641 0.51805,-0.19939 -0.4151,1.03166 -0.56984,1.56475 -0.19569,0.67417 -0.31975,1.36711 -0.47962,2.05067 -0.88725,4.79222 -1.05533,9.67731 -1.16952,14.53786 -0.20327,3.94388 0.28603,7.84632 0.95047,11.72142 0.28402,1.69491 0.11529,0.90339 0.48347,2.3793 0,0 -11.00314,5.94181 -11.00314,5.94181 l 0,0 c -0.37921,-1.59014 -0.21786,-0.75801 -0.46717,-2.4996 -0.60203,-3.9684 -1.15758,-7.95843 -0.93369,-11.98609 0.11739,-4.91696 0.29593,-9.84423 1.0318,-14.71512 0.12471,-0.70437 0.23427,-1.4116 0.37414,-2.11312 0.11436,-0.57354 -0.0754,-1.35462 0.38836,-1.71097 3.61818,-2.78035 9.67368,-10.45326 12.02462,-6.54241 0.30246,0.50315 0.2344,1.92058 0.24374,2.31525 -0.0403,5.14765 -0.74202,10.28408 -3.16525,14.90452 -0.49492,0.89423 -0.92826,1.82543 -1.48477,2.68268 -4.00108,6.16322 -9.67798,8.32902 -16.50926,12.0471 -0.67968,0.36993 -1.47527,0.52884 -2.24724,0.5824 -0.64353,0.0446 -1.2752,-0.19586 -1.9128,-0.29379 -0.63859,-0.32673 -1.33061,-0.5653 -1.91577,-0.98019 -5.1265,-3.63472 -7.71633,-11.76724 -10.04928,-17.23048 -3.11444,-9.91663 -5.60906,-20.01094 -7.22743,-30.28677 3.68209,-2.14362 7.16454,-4.67444 11.04627,-6.43087 0.43761,-0.19801 -0.0183,0.96052 -0.0183,1.44085 3.7e-4,4.27572 0.19282,8.5484 0.386,12.81878 0.39611,7.55326 0.94975,15.10138 0.88998,22.67091 -0.1104,4.99361 -0.32958,9.98657 -0.43395,14.9753 0,0 -11.15814,5.68536 -11.15814,5.68536 z"
         id="path4001"
         style="fill:#000000;fill-opacity:1;stroke:none" />
      <path
         transform="translate(0,332.36218)"
         inkscape:connector-curvature="0"
         d="m 720.01437,214.02667 c -3.61362,4.17949 -5.23701,9.58021 -6.57099,14.83052 -0.53285,3.42533 -2.17498,8.15552 -0.37702,11.48163 0.22706,0.42004 0.58494,0.75487 0.8774,1.1323 1.37697,1.03863 3.7291,2.0989 5.51534,1.80195 0.48699,-0.081 0.91344,-0.37481 1.37016,-0.56221 -3.1318,1.71136 -6.2636,3.42272 -9.3954,5.13408 3.39043,-2.82055 3.93918,-7.1302 3.99907,-11.28431 -0.2328,-3.87965 -0.8902,-7.42746 -3.75117,-10.21422 -1.36426,-0.90814 -0.66415,-0.5235 -2.09182,-1.16925 0,0 10.43998,-6.85326 10.43998,-6.85326 l 0,0 c 1.55204,0.8842 0.79063,0.37781 2.27267,1.53637 3.044,3.29524 3.72762,6.73316 4.08112,11.12449 0.0365,4.38871 -0.33203,8.87995 -3.38692,12.31128 -7.69953,4.45664 -12.52783,10.69432 -19.74454,4.50831 -0.3427,-0.48384 -0.75487,-0.92531 -1.02812,-1.45151 -1.95587,-3.76649 -0.39162,-8.38155 0.27294,-12.24737 1.25849,-5.26699 2.74147,-10.72015 5.95823,-15.16764 0,0 11.55907,-4.91116 11.55907,-4.91116 z"
         id="path4003"
         style="fill:#000000;fill-opacity:1;stroke:none" />
      <path
         transform="translate(0,332.36218)"
         inkscape:connector-curvature="0"
         d="m 749.87248,186.83736 c -1.38665,7.78729 -1.69421,15.71627 -2.39006,23.58324 -1.12097,10.59987 -1.61756,21.24345 -1.8976,31.89376 -0.0898,6.20993 -0.40538,12.4497 0.51819,18.61875 0.50309,3.36044 0.81873,4.18164 1.67982,7.35862 0.98088,2.16261 1.63362,5.08721 3.72486,6.56701 2.35449,1.66608 5.60223,1.30168 8.27734,1.24274 3.8064,-0.4419 7.78659,-0.96292 11.27221,-2.68633 0.59859,-0.29597 2.2839,-1.38371 1.69984,-1.06001 -3.08644,1.71054 -6.13926,3.48108 -9.20889,5.22162 2.45165,-1.79779 2.76474,-3.39547 2.37787,-6.26088 -0.41287,-2.21213 -0.19971,-1.10745 -0.63948,-3.31406 0,0 10.94743,-5.85134 10.94743,-5.85134 l 0,0 c 0.43928,2.21554 0.21264,1.10534 0.68018,3.33054 0.62802,3.0838 0.64506,5.27108 -1.80303,7.57025 -4.55672,2.69005 -8.84321,5.94972 -13.74613,7.94004 -3.61381,1.46702 -7.55852,1.97048 -11.41499,2.25595 -3.11796,-0.0648 -6.37685,0.0311 -8.98037,-2.03979 -2.16935,-1.72555 -2.84747,-4.73313 -3.8248,-7.14593 -0.77792,-3.04393 -1.19844,-4.38308 -1.66964,-7.56628 -0.92472,-6.24688 -0.55717,-12.55441 -0.44297,-18.83928 0.28522,-10.67027 0.7407,-21.33956 1.86586,-31.95953 0.6864,-7.75682 0.95702,-15.5543 1.71778,-23.2988 0,0 11.25658,-5.56029 11.25658,-5.56029 z"
         id="path4005"
         style="fill:#000000;fill-opacity:1;stroke:none" />
      <path
         transform="translate(0,332.36218)"
         inkscape:connector-curvature="0"
         d="m 766.85605,226.52216 c -0.23386,4.5217 -0.15997,9.04251 0.35107,13.54113 0.2764,1.16767 0.30705,4.27071 1.53833,5.02908 0.25295,0.15579 0.64253,-0.25976 0.75903,-0.35241 -16.83863,9.14939 -11.6489,8.2667 -9.14967,4.04674 0,0 11.35478,-5.16266 11.35478,-5.16266 l 0,0 c -2.13485,5.6364 -2.91527,3.90675 -12.33891,8.59794 -2.69222,-0.78741 -2.76476,-4.11025 -3.08474,-6.44189 -0.484,-4.50679 -0.50624,-9.03024 -0.61737,-13.55763 0,0 11.18748,-5.7003 11.18748,-5.7003 z"
         id="path4007"
         style="fill:#000000;fill-opacity:1;stroke:none" />
      <path
         transform="translate(0,332.36218)"
         inkscape:connector-curvature="0"
         d="m 762.62681,203.68429 c -0.0462,1.33726 -0.0413,2.67547 -0.0424,4.01328 0,0 -11.10262,5.65707 -11.10262,5.65707 l 0,0 c -0.001,-1.32339 0.004,-2.64722 -0.0424,-3.97005 0,0 11.18748,-5.7003 11.18748,-5.7003 z"
         id="path4009"
         style="fill:#000000;fill-opacity:1;stroke:none" />
      <path
         transform="translate(0,332.36218)"
         inkscape:connector-curvature="0"
         d="m 785.46468,215.52615 c -0.17033,4.14626 -0.13398,8.29135 0.11702,12.43239 0.48197,4.20527 0.93855,8.4123 1.27885,12.63162 0.45525,6.48033 1.58231,3.04014 -10.93297,8.04952 -0.24324,0.0974 0.0342,-0.52294 0.0444,-0.78474 0.0137,-0.35056 0.0182,-0.70142 0.0273,-1.05213 0.0515,-2.96557 0.0336,-5.93145 0.0276,-8.89729 -0.20439,-3.09594 -0.48847,-6.18648 -0.68973,-9.28347 -0.24343,-2.36332 0.081,-4.68615 0.79073,-6.93718 0.29144,-0.62139 0.49032,-1.26283 1.14222,-1.64452 8.00722,-4.68827 9.12696,-7.31168 15.93528,-6.3817 3.02843,0.29576 5.56109,1.84547 7.84404,3.74633 2.44085,2.34066 3.75333,5.51865 5.03178,8.58553 1.41476,3.3972 1.77938,7.03751 2.03917,10.66825 0.12844,2.01119 0.0921,4.02576 0.25407,6.034 0,0 -11.06827,5.75416 -11.06827,5.75416 l 0,0 c -0.16887,-2.02686 -0.109,-4.05619 -0.20165,-6.08783 -0.18975,-3.50312 -0.51403,-7.02128 -1.83654,-10.30988 -1.20163,-2.88488 -2.41969,-5.88181 -4.79426,-8.01797 -2.17934,-1.75182 -4.56055,-3.00335 -7.41904,-3.14297 -1.0931,-0.0544 -1.58314,-0.13587 -2.67372,0.0386 -0.39037,0.0624 -1.48292,0.50493 -1.1493,0.29282 3.17042,-2.01572 6.51236,-3.75078 9.70441,-5.73206 0.27949,-0.17348 -0.66467,0.11687 -0.94221,0.29345 -0.22516,0.14325 -0.33388,0.41641 -0.50082,0.62461 -0.92847,2.03423 -1.24216,4.2718 -1.08971,6.49962 0.14704,3.12494 0.42489,6.23704 0.70479,9.35221 0.002,2.9563 -9.1e-4,5.91255 0.0469,8.86853 0.005,0.34864 0.01,0.69731 0.0163,1.04593 0.005,0.26721 0.24453,0.65958 0.0181,0.80156 -12.81932,8.03862 -11.00721,9.92904 -11.34064,3.32282 -0.2403,-4.24175 -0.6709,-8.46447 -1.20683,-12.67896 -0.25661,-4.12967 -0.28857,-8.25516 -0.36467,-12.39095 0,0 11.18748,-5.7003 11.18748,-5.7003 z"
         id="path4011"
         style="fill:#000000;fill-opacity:1;stroke:none" />
      <path
         inkscape:connector-curvature="0"
         d="m 838.91964,561.76613 c -0.38869,-3.24792 -1.39327,-6.32216 -3.02147,-9.14854 -1.01569,-2.03183 -2.49741,-3.38483 -4.62427,-4.12252 -1.1479,-0.20465 -1.96336,0.43385 -2.93948,0.92066 -0.45232,0.22558 -1.81074,0.89542 -1.37499,0.63931 12.32917,-7.24636 11.82197,-6.95758 7.80429,-4.31574 -3.02343,2.23619 -5.84096,4.72782 -8.30319,7.57032 -1.98883,2.33306 -3.05139,5.17614 -4.04609,8.02599 -0.83275,2.17079 -0.93825,4.25941 -0.37734,6.49689 0.92835,2.85681 2.79162,3.77788 5.52713,4.50627 3.63685,0.87767 6.60982,0.30549 9.93925,-1.27829 5.5181,-3.29398 -3.55128,2.13732 -7.50313,4.17931 -0.51708,0.26719 0.91817,-0.71849 1.3399,-1.11963 1.36967,-1.30277 2.40085,-2.88187 3.44686,-4.43975 1.66313,-2.65329 3.13386,-5.43282 4.29186,-8.3435 1.38869,-4.39157 11.87339,-10.2876 11.80132,-4.70095 -0.0276,2.14027 -0.53893,4.39065 -0.77799,6.51343 -0.2528,3.60836 -0.77532,7.23857 -0.61536,10.8654 0.0967,2.19192 0.28522,2.79124 0.68407,4.92818 0.71229,2.60084 1.85898,5.07247 3.69991,7.07477 0.60396,0.65689 2.16687,1.93513 2.81124,2.4787 2.48905,2.00938 5.37867,3.36321 8.2667,4.68184 1.12357,0.66487 0.60932,0.29202 1.5521,1.10551 0,0 -10.64202,6.66322 -10.64202,6.66322 l 0,0 c -0.79746,-0.61868 -0.35462,-0.31808 -1.34385,-0.87883 -2.89968,-1.45688 -5.80938,-2.92656 -8.31442,-5.025 -3.60762,-3.03505 -5.63094,-5.6569 -6.86323,-10.3203 -0.38788,-1.98937 -0.67436,-3.10057 -0.78663,-5.14115 -0.20136,-3.65963 0.41072,-7.32846 0.57024,-10.97573 0.18579,-2.07646 0.34223,-4.15888 0.59638,-6.22858 0.0228,-0.18583 -0.0768,-0.45896 0.0837,-0.5554 3.59432,-2.16021 7.30538,-4.12117 10.99959,-6.10574 0.15111,-0.0812 -0.22996,0.25461 -0.34493,0.38192 -1.29745,2.94665 -2.63714,5.87405 -4.34918,8.613 -1.01604,1.61924 -2.01505,3.2791 -3.29196,4.71355 -3.95366,4.44143 -9.81058,6.59206 -15.0281,9.30544 -3.57906,1.32465 -6.77936,1.69774 -10.49808,0.62218 -3.04891,-1.02703 -5.12563,-2.39828 -6.21267,-5.56694 -0.69438,-2.43232 -0.86732,-4.73493 0.0323,-7.15277 1.00315,-2.96322 2.04634,-5.96928 3.96267,-8.48594 2.39082,-2.96099 5.15975,-5.51322 8.15476,-7.85977 4.99796,-3.75201 1.81351,-1.45222 13.4772,-7.96316 1.53578,-0.8573 3.278,-1.41397 4.98672,-0.79364 2.23717,1.04587 3.90913,2.62384 4.98729,4.87764 1.65154,2.97543 2.67899,6.1873 3.35771,9.51983 0,0 -11.11483,5.83851 -11.11483,5.83851 z"
         id="path4017"
         style="fill:#000000;fill-opacity:1;stroke:none" />
    </g>
  </g>
</svg>
