<?xml version="1.0" standalone="no"?>
<!DOCTYPE svg PUBLIC "-//W3C//DTD SVG 20010904//EN"
 "http://www.w3.org/TR/2001/REC-SVG-20010904/DTD/svg10.dtd">
<svg version="1.0" xmlns="http://www.w3.org/2000/svg"
 width="260.000000pt" height="260.000000pt" viewBox="0 0 260.000000 260.000000"
 preserveAspectRatio="xMidYMid meet">
<metadata>
Created by potrace 1.11, written by Peter Selinger 2001-2013
</metadata>
<g transform="translate(0.000000,260.000000) scale(0.100000,-0.100000)"
fill="#000000" stroke="none">
<path d="M0 2569 l0 -32 88 6 c48 4 203 12 345 18 170 8 264 17 275 25 13 9
-57 12 -346 13 l-362 2 0 -32z m687 15 c-3 -3 -12 -4 -19 -1 -8 3 -5 6 6 6 11
1 17 -2 13 -5z"/>
<path d="M742 2587 c-8 -9 38 -29 204 -86 222 -75 217 -75 317 -55 27 5 27 7
27 80 l0 74 -269 0 c-203 0 -271 -3 -279 -13z"/>
<path d="M1304 2523 l1 -76 114 -38 c63 -22 116 -37 117 -36 2 2 -49 42 -113
90 -64 48 -113 87 -109 87 4 0 61 -41 128 -92 67 -50 135 -98 152 -106 51 -25
227 -162 286 -221 30 -31 45 -47 32 -37 -12 11 -22 16 -22 12 0 -4 27 -56 60
-116 l60 -108 12 -129 c7 -77 14 -118 18 -103 4 14 5 -24 2 -85 -6 -157 -37
-366 -62 -414 -26 -51 -25 -59 3 -35 19 16 19 15 -3 -9 -21 -24 -22 -30 -10
-37 13 -8 13 -10 -1 -10 -18 0 -35 -72 -23 -92 4 -7 2 -8 -4 -4 -7 4 -12 1
-12 -8 0 -8 -10 -27 -23 -43 -21 -25 -97 -267 -97 -309 0 -8 -4 -13 -9 -9 -5
3 -12 -4 -16 -15 -3 -11 -32 -59 -64 -107 -43 -64 -77 -102 -124 -138 -37 -28
-64 -56 -62 -62 13 -34 14 -46 4 -26 -8 16 -18 21 -33 18 -12 -2 -50 -9 -86
-15 -36 -6 -77 -13 -92 -16 l-28 -6 0 -114 0 -114 173 0 c170 0 174 0 185 23
l11 22 0 -22 1 -23 370 0 c204 0 370 2 370 5 0 3 -16 37 -36 76 -19 39 -34 73
-32 75 3 2 22 -32 43 -76 22 -44 45 -80 52 -80 7 0 19 13 28 30 9 16 18 30 21
30 2 0 -2 -13 -11 -30 l-16 -30 71 0 70 0 0 353 0 353 -33 18 c-29 15 -20 15
18 0 13 -6 15 57 15 539 0 420 -3 547 -13 550 -9 4 -9 6 1 6 10 1 12 81 12
391 l-2 390 -647 0 -648 -1 1 -76z m890 -347 c-9 -26 -18 -45 -20 -43 -2 2 3
25 12 51 9 26 18 45 20 43 2 -2 -3 -25 -12 -51z m-233 -113 c13 -16 12 -17 -3
-4 -10 7 -18 15 -18 17 0 8 8 3 21 -13z m99 -80 c0 -2 -18 10 -40 27 -22 17
-40 34 -40 37 0 2 18 -10 40 -27 22 -17 40 -34 40 -37z m50 -22 c0 12 2 11 10
-1 5 -8 5 -17 1 -20 -4 -3 -10 -10 -12 -16 -2 -6 -11 4 -21 23 -16 34 -16 34
3 17 15 -13 19 -14 19 -3z m-33 -27 c-3 -3 -12 -4 -19 -1 -8 3 -5 6 6 6 11 1
17 -2 13 -5z m-50 -10 c-3 -3 -12 -4 -19 -1 -8 3 -5 6 6 6 11 1 17 -2 13 -5z
m170 0 c-3 -3 -12 -4 -19 -1 -8 3 -5 6 6 6 11 1 17 -2 13 -5z m40 -10 c-3 -3
-12 -4 -19 -1 -8 3 -5 6 6 6 11 1 17 -2 13 -5z m-140 -46 c-3 -8 -6 -5 -6 6
-1 11 2 17 5 13 3 -3 4 -12 1 -19z m250 16 c-3 -3 -12 -4 -19 -1 -8 3 -5 6 6
6 11 1 17 -2 13 -5z m40 -10 c-3 -3 -12 -4 -19 -1 -8 3 -5 6 6 6 11 1 17 -2
13 -5z m70 -20 c-3 -3 -12 -4 -19 -1 -8 3 -5 6 6 6 11 1 17 -2 13 -5z m-370
-36 c-3 -7 -5 -2 -5 12 0 14 2 19 5 13 2 -7 2 -19 0 -25z m410 26 c-3 -3 -12
-4 -19 -1 -8 3 -5 6 6 6 11 1 17 -2 13 -5z m70 -20 c-3 -3 -12 -4 -19 -1 -8 3
-5 6 6 6 11 1 17 -2 13 -5z m-490 -46 c-3 -8 -6 -5 -6 6 -1 11 2 17 5 13 3 -3
4 -12 1 -19z m-10 -50 c-3 -7 -5 -2 -5 12 0 14 2 19 5 13 2 -7 2 -19 0 -25z
m-10 -40 c-3 -8 -6 -5 -6 6 -1 11 2 17 5 13 3 -3 4 -12 1 -19z m513 -51 c0 -2
-19 -21 -42 -42 l-43 -40 40 43 c36 39 45 47 45 39z m-100 -90 c0 -2 -19 -21
-42 -42 l-43 -40 40 43 c36 39 45 47 45 39z m-100 -90 c0 -2 -19 -21 -42 -42
l-43 -40 40 43 c36 39 45 47 45 39z m-100 -90 c0 -2 -17 -19 -37 -38 l-38 -34
34 38 c33 34 41 42 41 34z m-90 -80 c0 -2 -17 -19 -37 -38 l-38 -34 34 38 c33
34 41 42 41 34z m-90 -80 c0 -2 -17 -19 -37 -38 l-38 -34 34 38 c33 34 41 42
41 34z m10 -252 c36 -19 61 -34 55 -34 -5 0 -39 15 -75 34 -36 19 -60 34 -55
34 6 0 39 -15 75 -34z m250 -120 c36 -19 61 -34 55 -34 -5 0 -39 15 -75 34
-36 19 -60 34 -55 34 6 0 39 -15 75 -34z m-121 -440 c0 -5 -27 42 -59 105 -32
63 -59 120 -59 125 0 6 27 -42 59 -105 32 -63 59 -119 59 -125z m-432 163 c-3
-8 -6 -5 -6 6 -1 11 2 17 5 13 3 -3 4 -12 1 -19z m-40 -170 c-3 -8 -6 -5 -6 6
-1 11 2 17 5 13 3 -3 4 -12 1 -19z m-10 -40 c-3 -8 -6 -5 -6 6 -1 11 2 17 5
13 3 -3 4 -12 1 -19z m-10 -40 c-3 -8 -6 -5 -6 6 -1 11 2 17 5 13 3 -3 4 -12
1 -19z m828 -108 c-14 -27 -28 -50 -30 -50 -3 0 6 23 20 50 14 28 28 50 30 50
3 0 -6 -22 -20 -50z m-878 -102 c-3 -8 -6 -5 -6 6 -1 11 2 17 5 13 3 -3 4 -12
1 -19z m-10 -40 c-3 -8 -6 -5 -6 6 -1 11 2 17 5 13 3 -3 4 -12 1 -19z"/>
<path d="M295 2543 c-160 -8 -291 -16 -293 -17 -1 -2 -1 -144 0 -317 l3 -314
165 160 c91 88 215 208 275 266 61 57 142 135 180 172 l70 67 -55 -1 c-30 -1
-185 -8 -345 -16z"/>
<path d="M755 2496 c12 -33 33 -89 45 -123 13 -35 27 -63 33 -63 5 0 29 15 52
34 33 28 58 37 131 52 49 9 95 20 101 23 7 4 -77 36 -186 73 l-199 66 23 -62z"/>
<path d="M615 2462 c-50 -48 -208 -201 -353 -340 -209 -203 -262 -259 -262
-279 l0 -26 158 6 c86 4 183 7 215 7 31 0 57 4 57 9 0 5 46 76 103 157 96 139
128 173 247 266 l35 27 -19 53 c-43 121 -78 208 -84 208 -4 0 -48 -40 -97 -88z"/>
<path d="M1296 2432 c-3 -3 -6 -106 -6 -228 l0 -223 38 -10 c20 -6 82 -21 137
-34 109 -26 101 -20 147 -122 23 -50 23 -50 73 -53 50 -3 51 -2 68 33 11 23
29 41 50 50 17 7 33 12 34 11 1 -1 7 -60 13 -131 14 -174 50 -474 60 -500 6
-16 11 -9 25 39 l17 59 20 -32 c11 -18 22 -31 23 -29 2 2 11 57 20 124 16 114
16 131 0 305 l-17 184 -77 141 -76 142 -104 78 c-57 44 -115 85 -129 93 -41
22 -310 110 -316 103z m697 -1096 c4 -10 0 -12 -14 -9 -10 3 -16 9 -13 14 8
13 21 11 27 -5z"/>
<path d="M185 1809 c-72 -3 -142 -7 -157 -8 -28 -1 -28 -2 -28 -65 0 -59 6
-76 80 -231 l81 -166 32 19 c113 66 157 99 157 114 0 9 16 86 35 169 19 84 35
159 35 166 0 14 -17 14 -235 2z"/>
<path d="M1 1427 c-1 -171 1 -207 12 -200 29 17 136 98 137 103 0 3 -34 73
-74 155 l-75 150 0 -208z"/>
<path d="M1410 1499 c-57 -25 -55 -23 -40 -59 l13 -32 61 9 c91 12 129 7 266
-31 68 -20 125 -34 127 -32 2 2 -6 24 -17 49 -19 44 -23 46 -98 71 -65 21
-217 48 -256 45 -6 0 -31 -9 -56 -20z"/>
<path d="M263 1384 c-40 -26 -73 -49 -73 -53 0 -6 138 -61 153 -61 4 0 7 36 7
80 0 44 -3 80 -7 80 -5 0 -41 -21 -80 -46z"/>
<path d="M1445 1365 l-40 -34 30 -11 c64 -25 123 -33 188 -26 37 4 67 11 67
15 0 4 -12 19 -27 33 -74 68 -155 77 -218 23z"/>
<path d="M72 1252 l-72 -55 0 -338 c1 -186 5 -341 9 -343 6 -4 144 785 138
790 -1 1 -35 -23 -75 -54z"/>
<path d="M165 1298 c-5 -12 -106 -626 -121 -732 l-7 -49 26 19 c14 10 23 22
20 27 -2 4 -1 7 4 6 21 -4 34 2 27 13 -4 6 -3 8 3 5 6 -4 13 0 17 8 3 8 12 15
19 15 8 0 23 8 35 18 50 42 59 49 75 55 9 3 17 14 17 24 0 15 2 15 9 4 7 -11
13 -7 25 20 9 19 14 26 11 17 -6 -24 7 -23 25 2 8 11 20 20 27 20 19 0 27 21
12 31 -9 6 -10 9 -2 9 15 0 14 23 -5 135 -8 50 -18 137 -21 194 l-6 105 -80
32 c-89 37 -104 40 -110 22z m43 -643 c-3 -3 -9 2 -12 12 -6 14 -5 15 5 6 7
-7 10 -15 7 -18z"/>
<path d="M1906 1151 c-3 -27 -4 -56 0 -64 3 -9 -2 -48 -11 -88 -8 -39 -14 -73
-12 -76 7 -7 50 101 50 127 1 14 -2 48 -7 75 -6 46 -6 48 7 26 l15 -25 16 31
c14 28 14 32 0 37 -40 15 -51 7 -58 -43z"/>
<path d="M1337 1175 c-45 -150 -47 -166 -41 -229 l7 -64 50 24 c31 14 61 21
74 18 18 -5 25 0 33 22 13 34 0 71 -43 117 -16 17 -39 54 -52 82 -18 40 -23
46 -28 30z"/>
<path d="M235 640 c-99 -71 -181 -133 -183 -138 -2 -6 489 -134 494 -129 1 1
-23 63 -54 137 -30 74 -60 163 -66 198 l-11 63 -180 -131z"/>
<path d="M1324 730 c-17 -6 -24 -21 -29 -59 -9 -67 -3 -74 53 -66 62 9 114 37
146 77 l26 33 -68 7 c-37 3 -76 9 -87 12 -11 3 -30 1 -41 -4z"/>
<path d="M520 561 c0 -7 -5 -9 -12 -5 -7 5 -8 3 -3 -5 5 -9 10 -10 18 -2 6 6
8 14 4 18 -4 3 -7 1 -7 -6z"/>
<path d="M540 550 c0 -5 5 -10 11 -10 5 0 7 5 4 10 -3 6 -8 10 -11 10 -2 0 -4
-4 -4 -10z"/>
<path d="M540 510 c0 -5 5 -10 11 -10 5 0 7 5 4 10 -3 6 -8 10 -11 10 -2 0 -4
-4 -4 -10z"/>
<path d="M45 449 c4 -17 24 -86 45 -153 21 -67 50 -161 65 -209 l26 -87 227 0
228 0 37 75 c20 41 33 75 28 75 -13 0 -105 119 -130 168 l-20 40 -251 61
c-137 34 -252 61 -256 61 -3 0 -3 -14 1 -31z"/>
<path d="M600 465 c0 -8 4 -15 10 -15 5 0 7 7 4 15 -4 8 -8 15 -10 15 -2 0 -4
-7 -4 -15z"/>
<path d="M11 423 c-6 -21 -11 -125 -11 -230 l0 -193 84 0 84 0 -13 43 c-52
170 -128 413 -130 415 -2 2 -8 -13 -14 -35z"/>
<path d="M765 449 c-4 -6 -4 -13 -1 -16 3 -4 6 -1 6 6 0 7 5 9 12 5 7 -4 8 -3
4 4 -9 15 -13 15 -21 1z"/>
<path d="M867 443 c8 -23 41 -100 58 -135 12 -26 11 -29 -12 -48 -14 -11 -23
-24 -18 -28 4 -4 14 3 22 16 19 28 28 28 30 0 1 -11 7 -24 14 -28 6 -4 9 -12
5 -18 -3 -6 0 -12 6 -15 7 -2 -15 -3 -49 -3 -66 2 -97 13 -41 15 79 3 76 1 64
27 -9 20 -12 21 -17 6 -3 -9 -12 -17 -20 -18 -8 0 -26 -2 -41 -2 -20 -2 -28
-7 -28 -21 0 -17 9 -19 80 -19 l80 -1 0 88 0 87 -64 57 c-69 61 -79 67 -69 40z"/>
<path d="M707 443 c-4 -3 -7 -13 -7 -22 1 -13 3 -13 11 2 11 19 8 33 -4 20z"/>
<path d="M597 416 c-4 -9 6 -20 24 -29 28 -13 29 -16 15 -30 -18 -17 -20 -27
-8 -27 8 0 32 43 32 55 0 3 -9 5 -20 5 -11 0 -20 6 -20 14 0 21 -17 29 -23 12z"/>
<path d="M739 393 c-13 -16 -12 -17 4 -4 16 13 21 21 13 21 -2 0 -10 -8 -17
-17z"/>
<path d="M670 387 c0 -6 3 -7 7 -4 3 4 13 1 21 -6 11 -8 14 -8 9 0 -4 6 -1 13
5 16 7 2 1 4 -14 4 -16 0 -28 -4 -28 -10z"/>
<path d="M590 376 c0 -2 7 -7 16 -10 8 -3 12 -2 9 4 -6 10 -25 14 -25 6z"/>
<path d="M760 370 c-11 -7 -11 -10 -2 -10 7 0 11 -4 8 -8 -2 -4 4 -8 14 -8 10
0 16 4 14 8 -3 4 2 8 11 8 12 0 15 -5 10 -17 -4 -13 -3 -15 5 -7 6 6 8 18 4
27 -4 13 -10 14 -24 7 -24 -13 -33 -13 -25 0 8 12 4 12 -15 0z"/>
<path d="M665 361 c-3 -5 -1 -12 5 -16 5 -3 10 -3 10 2 0 4 4 2 9 -6 5 -8 21
-16 36 -18 17 -3 24 0 20 7 -3 6 -10 8 -15 5 -5 -3 -11 -1 -15 5 -11 17 -43
31 -50 21z"/>
<path d="M595 330 c-8 -13 4 -32 16 -25 5 3 7 0 4 -7 -3 -7 13 -32 35 -55 21
-24 37 -43 33 -43 -3 0 0 -6 6 -13 7 -9 35 -14 77 -15 60 -1 64 1 48 14 -11 9
-13 12 -6 9 8 -4 20 1 28 13 8 12 21 19 29 16 17 -7 21 11 5 21 -6 4 -8 15 -5
25 4 12 -1 22 -12 28 -15 9 -15 12 -3 29 14 16 14 17 -2 5 -17 -14 -18 -47 -3
-84 5 -13 2 -18 -11 -18 -16 0 -17 2 -4 10 9 6 10 10 3 10 -6 0 -15 -5 -19
-12 -5 -8 -11 -6 -19 6 -7 9 -17 16 -21 15 -21 -4 -35 2 -29 11 3 6 1 10 -6
10 -7 0 -10 3 -7 6 4 3 15 1 25 -4 14 -7 23 -4 40 13 l22 23 -30 4 c-18 3 -28
1 -26 -6 3 -6 11 -10 18 -8 11 3 12 1 1 -10 -10 -10 -16 -10 -32 0 -26 16 -30
15 -31 -5 0 -10 -3 -13 -5 -6 -3 7 -13 9 -22 6 -15 -6 -15 -5 -3 10 7 9 11 18
7 18 -3 1 -9 2 -13 3 -5 1 -14 5 -21 10 -11 7 -12 4 -3 -12 12 -23 15 -43 3
-27 -14 21 -61 45 -67 35z m69 -66 c7 -19 -1 -18 -26 5 l-20 20 20 -6 c11 -3
23 -11 26 -19z m196 16 c0 -5 -5 -10 -11 -10 -5 0 -7 5 -4 10 3 6 8 10 11 10
2 0 4 -4 4 -10z m-135 -20 c3 -5 2 -10 -4 -10 -5 0 -13 5 -16 10 -3 6 -2 10 4
10 5 0 13 -4 16 -10z m50 -39 c3 -5 2 -12 -3 -15 -5 -3 -9 1 -9 9 0 17 3 19
12 6z"/>
<path d="M1022 298 c2 -18 12 -24 48 -30 66 -12 67 -6 5 25 l-56 27 3 -22z"/>
<path d="M803 265 c0 -8 4 -12 9 -9 4 3 8 9 8 15 0 5 -4 9 -8 9 -5 0 -9 -7 -9
-15z"/>
<path d="M1010 205 c0 -60 6 -56 -80 -60 -103 -4 -99 0 -79 -95 l11 -50 107 0
108 0 101 104 c56 58 102 109 102 113 0 8 -208 43 -252 43 -15 0 -18 -9 -18
-55z"/>
<path d="M1193 104 l-92 -99 91 -3 c50 -1 92 -1 95 1 2 3 2 49 1 102 l-3 98
-92 -99z"/>
<path d="M686 75 c-20 -36 -36 -68 -36 -70 0 -3 43 -5 96 -5 l96 0 -7 47 c-13
95 -12 93 -65 93 l-48 0 -36 -65z"/>
</g>
</svg>
