<svg xmlns="http://www.w3.org/2000/svg" width="345.6" height="448"><path d="M0 0h346v448H0V0z" fill="#fbe76c" paint-order="markers fill stroke"/><path d="M0 196c7-40 14-99 61-109 45-5 53 57 94 56 46 3 48-48 72-73 19-10 41-6 61-12-4 38 0 94 51 89 13 18 4 43 7 64v136c-57 13-119 21-164 61-26 22-54 51-91 40H0V196z" fill="#060606" fill-opacity=".4"/><path d="M211 146c48 7 102 19 131 62 9 37-39 48-67 43-39-11-73 25-56 63 17 34 30 79-18 95-23 5-73 65-66 9 1-76-8-153 0-230 7-34 44-52 76-42z" fill="#cddfe7" fill-opacity=".7" paint-order="markers fill stroke"/><path d="M214 0l14 62 65-14-10-48h-69z" fill="#f0db4e"/><path d="M249 20l6-1 5 22c0 11-14 11-17 6l3-4c5 5 8 2 8-2zM275 22l4-4c-6-7-22 0-15 11 3 3 8 5 10 4 2 0 4 1 5 4 0 4-9 5-11 1l-4 4c8 10 27 0 18-11-3-4-9-3-12-5-6-4 2-9 5-4z"/></svg>
