<svg width="416.262" height="416.262" viewBox="0 0 416.262 416.262" xmlns="http://www.w3.org/2000/svg">
    <path d="M208.135,0C93.373,0,0,93.365,0,208.131c0,114.766,93.373,208.131,208.135,208.131 c114.764,0,208.127-93.365,208.127-208.131C416.262,93.365,322.898,0,208.135,0z M385.438,184.879h-67.397 c-4.45-54.305-25.246-107.009-62.392-149.162C324.029,54.582,376.075,113.102,385.438,184.879z M193.504,184.879h-65.662 c5.549-51.439,27.508-101.594,65.662-140.883V184.879z M193.504,214.139v161.119c-0.496-0.707-1.03-1.4-1.66-2.027 c-42.943-42.952-64.631-100.66-65.354-159.092H193.504z M222.762,214.139h66.941c-1.655,58.047-24.018,116-66.941,160.197V214.139z M222.762,184.879V43.075c0.494,0.706,1.029,1.399,1.656,2.027c38.203,38.212,59.594,88.094,64.363,139.776L222.762,184.879 L222.762,184.879z M161.791,35.379c-36.901,42.947-58.018,95.66-63.184,149.5H30.826C40.239,112.688,92.838,53.897,161.791,35.379z M29.418,214.139h67.984c0.65,59.832,20.91,119.015,60.889,165.742C85.693,358.777,32.033,292.829,29.418,214.139z M256.814,380.209c39.8-47.612,60.49-106.795,61.992-166.07h68.049C384.227,293.245,329.999,359.479,256.814,380.209z" fill="#aaaaaa"/>
</svg>